<svg version="1.1" id="Layer_1" xmlns="http://www.w3.org/2000/svg" xmlns:xlink="http://www.w3.org/1999/xlink" x="0px" y="0px"
	 width="100%" viewBox="0 0 500 500" enable-background="new 0 0 500 500" xml:space="preserve">
<path fill="#000000" opacity="1.000000" stroke="none" 
	d="
M278.000000,501.000000 
	C185.333359,501.000000 93.166710,501.000000 1.000049,501.000000 
	C1.000033,334.333405 1.000033,167.666794 1.000016,1.000139 
	C167.666565,1.000093 334.333130,1.000093 500.999756,1.000046 
	C500.999847,167.666519 500.999847,334.333038 500.999939,500.999786 
	C426.833344,501.000000 352.666656,501.000000 278.000000,501.000000 
M272.868103,204.400482 
	C270.915588,208.443649 269.135193,212.583160 266.946075,216.493851 
	C265.631348,218.842438 264.078125,221.550415 261.891937,222.768448 
	C260.008667,223.817703 257.077515,222.986099 254.681183,222.986099 
	C254.117386,218.950058 257.014435,214.403183 251.634079,212.214981 
	C243.100754,208.744461 242.786804,216.963470 239.295761,221.711304 
	C238.729385,217.091125 237.755112,213.613602 233.171387,213.110184 
	C228.842422,212.634705 227.093246,215.235321 225.758774,218.887695 
	C225.117874,220.641769 223.271606,221.955429 221.971207,223.468536 
	C222.802521,218.881989 221.630569,215.867798 217.771774,213.907547 
	C214.003159,211.993103 211.425110,213.850449 209.217346,216.642410 
	C204.175690,223.018127 196.697906,223.076813 189.659485,223.966690 
	C188.588516,224.102097 186.272324,221.918137 186.119064,220.619644 
	C184.560883,207.418091 183.431473,194.166138 181.904709,180.960373 
	C181.673950,178.964325 180.164215,175.645569 178.998383,175.534317 
	C176.569977,175.302582 173.614258,176.280090 171.525421,177.710297 
	C167.248352,180.638779 169.184952,185.289627 169.530182,189.213516 
	C170.597610,201.345749 172.360626,213.426926 173.089996,225.573776 
	C173.383698,230.465118 175.432465,233.151459 179.363434,234.948700 
	C186.505585,238.214066 193.855911,237.109833 201.266754,235.929916 
	C203.811676,235.524719 206.942352,235.434952 209.092529,236.561630 
	C214.920288,239.615295 220.287704,239.097198 225.863388,236.266098 
	C226.835327,235.772552 228.152267,235.903275 229.314651,235.850143 
	C233.140228,235.675308 236.972183,235.614563 240.792999,235.372910 
	C242.483139,235.266022 244.231613,234.362198 245.816559,234.630264 
	C250.794571,235.472260 255.707520,236.698929 259.557617,237.539169 
	C261.623413,240.387390 263.065338,244.467194 265.193481,244.863678 
	C269.315704,245.631668 270.817535,241.478058 271.960541,237.998993 
	C272.010864,237.845810 271.946075,237.600403 272.038910,237.523605 
	C273.902649,235.981445 275.552216,233.850372 277.698822,233.039352 
	C285.467957,230.104019 293.457703,227.756271 301.254578,224.888733 
	C304.660187,223.636230 305.848145,221.069305 305.463348,217.062027 
	C305.058258,212.843231 303.250610,211.837112 299.524567,211.622833 
	C298.269745,211.550674 296.702026,209.878128 295.987579,208.553848 
	C289.659332,196.823929 282.928162,195.352432 272.868103,204.400482 
M322.661530,236.182251 
	C318.515991,237.331879 314.282104,238.247421 310.273895,239.760742 
	C308.909515,240.275864 307.453339,242.209000 307.262665,243.655472 
	C307.105133,244.850861 308.479645,246.669464 309.671082,247.504639 
	C310.900391,248.366379 312.722504,248.675552 314.295746,248.707397 
	C327.637512,248.977417 340.710846,246.989090 353.201721,242.424179 
	C362.945740,238.863129 373.006378,235.454071 380.154572,227.208054 
	C382.132050,224.926804 384.740265,222.427368 385.185577,219.719879 
	C386.812195,209.829941 384.938202,200.399582 379.300140,191.909439 
	C377.105133,188.604095 374.023499,187.375717 370.655060,189.565109 
	C367.531158,191.595581 366.049255,194.812576 367.601471,198.645737 
	C368.276947,200.313766 369.461609,201.777451 370.120819,203.449905 
	C373.333496,211.600372 373.786682,215.366379 368.755157,219.143784 
	C365.581635,221.526291 361.865356,223.185898 359.161438,224.730530 
	C357.070099,215.847382 355.110382,207.354172 353.022614,198.892563 
	C352.789795,197.948929 351.929596,196.572235 351.187378,196.450439 
	C348.792725,196.057465 345.926880,195.322159 343.955566,196.243744 
	C340.058411,198.065689 340.630737,202.169571 341.522949,205.480835 
	C343.307526,212.103851 345.748993,218.548477 347.596954,225.156860 
	C347.982117,226.534241 347.329681,229.468491 346.547455,229.709183 
	C338.937622,232.050476 331.198364,233.971100 322.661530,236.182251 
M132.531189,218.204849 
	C129.893341,219.493240 127.374352,221.200592 124.594711,221.989258 
	C117.087830,224.119202 109.511719,226.055878 101.878128,227.666595 
	C98.203247,228.441986 96.837784,230.381927 97.167336,233.779373 
	C97.467354,236.872391 98.806442,239.089050 102.457634,238.895859 
	C104.597641,238.782623 106.754883,238.962784 108.891212,238.817474 
	C131.243546,237.297318 148.446014,226.645264 161.143372,208.602615 
	C163.276520,205.571442 164.213242,201.314926 164.488480,197.536133 
	C164.609543,195.873840 161.986267,193.159027 160.054947,192.465836 
	C158.469543,191.896790 154.915573,193.023575 154.207321,194.408051 
	C149.232681,204.132599 141.918625,211.575256 132.531189,218.204849 
M404.018738,222.240982 
	C402.951721,207.597183 401.998444,192.943710 400.754395,178.314972 
	C400.334015,173.371490 395.367462,171.036758 391.969177,174.186142 
	C390.112518,175.906799 388.189575,178.952026 388.365112,181.241287 
	C389.447815,195.360489 391.019897,209.446198 392.662537,223.515778 
	C393.099335,227.257156 393.985840,232.158234 398.593323,232.005585 
	C403.192352,231.853226 403.601349,227.026871 404.018738,222.240982 
M330.017944,266.494476 
	C329.297302,264.535492 328.576660,262.576477 327.775696,260.399109 
	C328.308807,259.660919 329.332794,258.818512 329.555939,257.800537 
	C329.899628,256.232727 330.322662,254.087555 329.553497,253.029526 
	C328.699860,251.855286 326.474701,250.950455 324.970184,251.108002 
	C319.579346,251.672531 316.468811,255.675140 314.813171,260.183594 
	C313.930847,262.586121 315.254181,265.798676 315.643585,269.180511 
	C316.146667,268.929749 315.386688,269.227783 314.712006,269.659302 
	C312.282471,271.213165 308.666107,272.370178 310.398499,276.231537 
	C311.961395,279.715088 315.323853,279.889648 318.679962,278.986603 
	C324.763092,277.349762 328.536316,273.450378 330.017944,266.494476 
M221.910492,178.421600 
	C218.189484,179.710419 214.437073,180.916168 210.755173,182.308395 
	C205.776596,184.190887 203.342926,189.102325 205.196213,193.386398 
	C214.684280,190.102661 224.130707,186.669327 233.691116,183.589813 
	C238.915497,181.906982 243.424927,179.598358 245.616898,174.263611 
	C246.052536,173.203354 245.902008,171.902222 246.021790,170.712189 
	C244.850204,170.791733 243.586655,170.613281 242.522049,170.992874 
	C235.887543,173.358383 229.297562,175.848785 221.910492,178.421600 
M317.285706,291.757904 
	C321.012024,290.465485 324.697906,289.037598 328.473846,287.911499 
	C334.583801,286.089325 339.674072,280.204895 339.151672,274.993439 
	C327.242371,279.177460 315.365845,283.270416 303.553833,287.541748 
	C299.251617,289.097443 297.210114,292.315887 298.007416,298.149780 
	C304.344727,295.987183 310.419647,293.914124 317.285706,291.757904 
M119.990829,207.395615 
	C125.264862,213.319016 132.484772,213.897003 135.307983,208.621826 
	C137.376450,204.756897 136.450714,199.057373 133.290329,196.199524 
	C130.447281,193.628647 123.856155,193.026840 121.084595,195.446777 
	C117.407455,198.657425 117.403084,202.609009 119.990829,207.395615 
z"/>
<path fill="#F6F6F6" opacity="1.000000" stroke="none" 
	d="
M273.018311,204.067734 
	C282.928162,195.352432 289.659332,196.823929 295.987579,208.553848 
	C296.702026,209.878128 298.269745,211.550674 299.524567,211.622833 
	C303.250610,211.837112 305.058258,212.843231 305.463348,217.062027 
	C305.848145,221.069305 304.660187,223.636230 301.254578,224.888733 
	C293.457703,227.756271 285.467957,230.104019 277.698822,233.039352 
	C275.552216,233.850372 273.902649,235.981445 272.038910,237.523605 
	C271.946075,237.600403 272.010864,237.845810 271.960541,237.998993 
	C270.817535,241.478058 269.315704,245.631668 265.193481,244.863678 
	C263.065338,244.467194 261.623413,240.387390 259.557617,237.539169 
	C255.707520,236.698929 250.794571,235.472260 245.816559,234.630264 
	C244.231613,234.362198 242.483139,235.266022 240.792999,235.372910 
	C236.972183,235.614563 233.140228,235.675308 229.314651,235.850143 
	C228.152267,235.903275 226.835327,235.772552 225.863388,236.266098 
	C220.287704,239.097198 214.920288,239.615295 209.092529,236.561630 
	C206.942352,235.434952 203.811676,235.524719 201.266754,235.929916 
	C193.855911,237.109833 186.505585,238.214066 179.363434,234.948700 
	C175.432465,233.151459 173.383698,230.465118 173.089996,225.573776 
	C172.360626,213.426926 170.597610,201.345749 169.530182,189.213516 
	C169.184952,185.289627 167.248352,180.638779 171.525421,177.710297 
	C173.614258,176.280090 176.569977,175.302582 178.998383,175.534317 
	C180.164215,175.645569 181.673950,178.964325 181.904709,180.960373 
	C183.431473,194.166138 184.560883,207.418091 186.119064,220.619644 
	C186.272324,221.918137 188.588516,224.102097 189.659485,223.966690 
	C196.697906,223.076813 204.175690,223.018127 209.217346,216.642410 
	C211.425110,213.850449 214.003159,211.993103 217.771774,213.907547 
	C221.630569,215.867798 222.802521,218.881989 221.971207,223.468536 
	C223.271606,221.955429 225.117874,220.641769 225.758774,218.887695 
	C227.093246,215.235321 228.842422,212.634705 233.171387,213.110184 
	C237.755112,213.613602 238.729385,217.091125 239.295761,221.711304 
	C242.786804,216.963470 243.100754,208.744461 251.634079,212.214981 
	C257.014435,214.403183 254.117386,218.950058 254.681183,222.986099 
	C257.077515,222.986099 260.008667,223.817703 261.891937,222.768448 
	C264.078125,221.550415 265.631348,218.842438 266.946075,216.493851 
	C269.135193,212.583160 270.915588,208.443649 273.018311,204.067734 
z"/>
<path fill="#F4F4F4" opacity="1.000000" stroke="none" 
	d="
M323.078766,236.096924 
	C331.198364,233.971100 338.937622,232.050476 346.547455,229.709183 
	C347.329681,229.468491 347.982117,226.534241 347.596954,225.156860 
	C345.748993,218.548477 343.307526,212.103851 341.522949,205.480835 
	C340.630737,202.169571 340.058411,198.065689 343.955566,196.243744 
	C345.926880,195.322159 348.792725,196.057465 351.187378,196.450439 
	C351.929596,196.572235 352.789795,197.948929 353.022614,198.892563 
	C355.110382,207.354172 357.070099,215.847382 359.161438,224.730530 
	C361.865356,223.185898 365.581635,221.526291 368.755157,219.143784 
	C373.786682,215.366379 373.333496,211.600372 370.120819,203.449905 
	C369.461609,201.777451 368.276947,200.313766 367.601471,198.645737 
	C366.049255,194.812576 367.531158,191.595581 370.655060,189.565109 
	C374.023499,187.375717 377.105133,188.604095 379.300140,191.909439 
	C384.938202,200.399582 386.812195,209.829941 385.185577,219.719879 
	C384.740265,222.427368 382.132050,224.926804 380.154572,227.208054 
	C373.006378,235.454071 362.945740,238.863129 353.201721,242.424179 
	C340.710846,246.989090 327.637512,248.977417 314.295746,248.707397 
	C312.722504,248.675552 310.900391,248.366379 309.671082,247.504639 
	C308.479645,246.669464 307.105133,244.850861 307.262665,243.655472 
	C307.453339,242.209000 308.909515,240.275864 310.273895,239.760742 
	C314.282104,238.247421 318.515991,237.331879 323.078766,236.096924 
z"/>
<path fill="#F3F3F3" opacity="1.000000" stroke="none" 
	d="
M132.822433,217.977448 
	C141.918625,211.575256 149.232681,204.132599 154.207321,194.408051 
	C154.915573,193.023575 158.469543,191.896790 160.054947,192.465836 
	C161.986267,193.159027 164.609543,195.873840 164.488480,197.536133 
	C164.213242,201.314926 163.276520,205.571442 161.143372,208.602615 
	C148.446014,226.645264 131.243546,237.297318 108.891212,238.817474 
	C106.754883,238.962784 104.597641,238.782623 102.457634,238.895859 
	C98.806442,239.089050 97.467354,236.872391 97.167336,233.779373 
	C96.837784,230.381927 98.203247,228.441986 101.878128,227.666595 
	C109.511719,226.055878 117.087830,224.119202 124.594711,221.989258 
	C127.374352,221.200592 129.893341,219.493240 132.822433,217.977448 
z"/>
<path fill="#F2F2F2" opacity="1.000000" stroke="none" 
	d="
M404.008057,222.698486 
	C403.601349,227.026871 403.192352,231.853226 398.593323,232.005585 
	C393.985840,232.158234 393.099335,227.257156 392.662537,223.515778 
	C391.019897,209.446198 389.447815,195.360489 388.365112,181.241287 
	C388.189575,178.952026 390.112518,175.906799 391.969177,174.186142 
	C395.367462,171.036758 400.334015,173.371490 400.754395,178.314972 
	C401.998444,192.943710 402.951721,207.597183 404.008057,222.698486 
z"/>
<path fill="#F0F0F0" opacity="1.000000" stroke="none" 
	d="
M329.991943,266.898682 
	C328.536316,273.450378 324.763092,277.349762 318.679962,278.986603 
	C315.323853,279.889648 311.961395,279.715088 310.398499,276.231537 
	C308.666107,272.370178 312.282471,271.213165 314.712006,269.659302 
	C315.386688,269.227783 316.146667,268.929749 315.643585,269.180511 
	C315.254181,265.798676 313.930847,262.586121 314.813171,260.183594 
	C316.468811,255.675140 319.579346,251.672531 324.970184,251.108002 
	C326.474701,250.950455 328.699860,251.855286 329.553497,253.029526 
	C330.322662,254.087555 329.899628,256.232727 329.555939,257.800537 
	C329.332794,258.818512 328.308807,259.660919 327.775696,260.399109 
	C328.576660,262.576477 329.297302,264.535492 329.991943,266.898682 
z"/>
<path fill="#DCCF34" opacity="1.000000" stroke="none" 
	d="
M222.301651,178.359695 
	C229.297562,175.848785 235.887543,173.358383 242.522049,170.992874 
	C243.586655,170.613281 244.850204,170.791733 246.021790,170.712189 
	C245.902008,171.902222 246.052536,173.203354 245.616898,174.263611 
	C243.424927,179.598358 238.915497,181.906982 233.691116,183.589813 
	C224.130707,186.669327 214.684280,190.102661 205.196213,193.386398 
	C203.342926,189.102325 205.776596,184.190887 210.755173,182.308395 
	C214.437073,180.916168 218.189484,179.710419 222.301651,178.359695 
z"/>
<path fill="#DCCF34" opacity="1.000000" stroke="none" 
	d="
M316.890137,291.799469 
	C310.419647,293.914124 304.344727,295.987183 298.007416,298.149780 
	C297.210114,292.315887 299.251617,289.097443 303.553833,287.541748 
	C315.365845,283.270416 327.242371,279.177460 339.151672,274.993439 
	C339.674072,280.204895 334.583801,286.089325 328.473846,287.911499 
	C324.697906,289.037598 321.012024,290.465485 316.890137,291.799469 
z"/>
<path fill="#F3F3F3" opacity="1.000000" stroke="none" 
	d="
M119.817093,207.055756 
	C117.403084,202.609009 117.407455,198.657425 121.084595,195.446777 
	C123.856155,193.026840 130.447281,193.628647 133.290329,196.199524 
	C136.450714,199.057373 137.376450,204.756897 135.307983,208.621826 
	C132.484772,213.897003 125.264862,213.319016 119.817093,207.055756 
z"/>
</svg>